<?xml version="1.0" encoding="UTF-8"?>
<svg xmlns="http://www.w3.org/2000/svg" viewBox="0 0 427.88 85.17">
  <defs>
    <style>
      .cls-1 {
        fill: #c21717;
      }

      .cls-1, .cls-2 {
        stroke-width: 0px;
      }

      .cls-2 {
        fill: #1d1d1b;
      }
    </style>
  </defs>
  <g>
    <path class="cls-1" d="M8.73,31.41c1.8,0,3.18-.29,4.14-.89s1.65-1.34,2.06-2.26c.41-.92.64-1.94.69-3.08.04-1.14.07-2.25.07-3.35V.71h1.95v21.8c0,.62,0,1.31-.02,2.08-.02.77-.1,1.54-.27,2.33-.16.78-.41,1.54-.75,2.28-.34.74-.83,1.4-1.48,1.97-.65.58-1.47,1.04-2.46,1.4-.99.35-2.22.53-3.7.53-2.13,0-3.8-.34-5.01-1.02-1.21-.68-2.1-1.55-2.68-2.61-.58-1.06-.93-2.23-1.06-3.5-.13-1.27-.2-2.5-.2-3.68h1.95c-.09,1.18-.07,2.32.04,3.41.12,1.09.41,2.06.89,2.9.47.84,1.17,1.52,2.11,2.04.93.52,2.18.77,3.74.77Z"/>
    <path class="cls-1" d="M21.84,20.96c0-1.62.23-3.15.69-4.59.46-1.43,1.13-2.69,2.02-3.79.89-1.09,1.98-1.96,3.28-2.59,1.3-.63,2.79-.95,4.47-.95s3.17.32,4.47.95c1.3.64,2.39,1.5,3.28,2.59.89,1.09,1.56,2.36,2.02,3.79.46,1.43.69,2.96.69,4.59s-.23,3.16-.69,4.61c-.46,1.45-1.13,2.71-2.02,3.79-.89,1.08-1.98,1.94-3.28,2.57s-2.79.95-4.47.95-3.18-.32-4.47-.95c-1.3-.63-2.39-1.49-3.28-2.57-.89-1.08-1.56-2.34-2.02-3.79-.46-1.45-.69-2.98-.69-4.61ZM23.53,20.96c0,1.36.19,2.67.58,3.92.38,1.26.94,2.37,1.68,3.35.74.97,1.65,1.75,2.75,2.33,1.09.58,2.35.86,3.77.86s2.67-.29,3.77-.86c1.09-.58,2.01-1.35,2.75-2.33s1.3-2.09,1.68-3.35c.38-1.25.58-2.56.58-3.92s-.19-2.67-.58-3.92c-.38-1.25-.95-2.37-1.68-3.34-.74-.98-1.65-1.75-2.75-2.33-1.09-.58-2.35-.86-3.77-.86s-2.67.29-3.77.86c-1.09.58-2.01,1.35-2.75,2.33-.74.97-1.3,2.09-1.68,3.34-.38,1.26-.58,2.56-.58,3.92Z"/>
    <path class="cls-1" d="M64.73,32.34h-1.68v-4.87h-.09c-.29.86-.72,1.62-1.26,2.28s-1.18,1.23-1.9,1.71c-.72.47-1.51.83-2.37,1.06-.86.24-1.73.35-2.61.35-1.33,0-2.46-.16-3.39-.49-.93-.32-1.69-.75-2.28-1.29s-1.06-1.13-1.4-1.79c-.34-.66-.58-1.34-.73-2.02-.15-.68-.24-1.34-.27-1.97-.03-.63-.04-1.19-.04-1.66v-14.09h1.68v14.4c0,.59.04,1.31.13,2.15s.35,1.65.78,2.44c.43.78,1.07,1.46,1.93,2.02.86.56,2.07.84,3.63.84,1.27,0,2.41-.24,3.43-.71,1.02-.47,1.88-1.13,2.59-1.97s1.25-1.85,1.62-3.01c.37-1.17.55-2.44.55-3.83v-12.32h1.68v22.77Z"/>
    <path class="cls-1" d="M71.38,14.62h.13c.21-.74.58-1.43,1.13-2.08.55-.65,1.21-1.21,1.99-1.68.78-.47,1.65-.83,2.61-1.09.96-.25,1.96-.36,2.99-.33v1.68c-.89-.12-1.9-.03-3.04.27-1.14.3-2.22.95-3.26,1.95-.41.44-.78.87-1.08,1.28-.31.41-.57.87-.78,1.37-.21.5-.37,1.06-.49,1.68-.12.62-.19,1.36-.22,2.22v12.45h-1.68V9.57h1.68v5.05Z"/>
    <path class="cls-1" d="M82.01,9.57h1.68v4.87h.09c.29-.86.72-1.62,1.26-2.28.55-.66,1.18-1.23,1.9-1.71.72-.47,1.51-.83,2.37-1.06.86-.24,1.73-.35,2.61-.35,1.33,0,2.46.16,3.39.49.93.33,1.69.75,2.28,1.29.59.53,1.06,1.13,1.4,1.79.34.67.58,1.34.73,2.02.15.68.24,1.34.27,1.97.03.64.04,1.19.04,1.66v14.09h-1.68v-14.4c0-.56-.04-1.27-.13-2.13-.09-.86-.35-1.68-.78-2.46-.43-.78-1.08-1.45-1.95-2.02-.87-.56-2.08-.84-3.61-.84-1.3,0-2.45.24-3.46.71-1,.47-1.86,1.13-2.57,1.97s-1.25,1.85-1.62,3.01c-.37,1.17-.55,2.44-.55,3.83v12.32h-1.68V9.57Z"/>
    <path class="cls-1" d="M105.63,21.18v.27c0,1.33.18,2.6.53,3.81.35,1.21.88,2.27,1.58,3.19.7.92,1.57,1.64,2.62,2.17,1.05.53,2.27.8,3.66.8,2.28,0,4.09-.6,5.42-1.79,1.33-1.2,2.25-2.86,2.75-4.98h1.68c-.5,2.66-1.59,4.7-3.26,6.11-1.67,1.42-3.88,2.13-6.62,2.13-1.68,0-3.15-.3-4.41-.91-1.25-.6-2.3-1.43-3.15-2.48-.84-1.05-1.47-2.29-1.88-3.72-.41-1.43-.62-2.98-.62-4.63s.21-3.12.64-4.59c.43-1.46,1.07-2.75,1.93-3.85.86-1.11,1.93-1.99,3.21-2.66,1.28-.67,2.8-1,4.54-1,1.59,0,3,.3,4.23.89,1.23.59,2.25,1.4,3.08,2.41.83,1.02,1.45,2.2,1.88,3.54.43,1.34.64,2.78.64,4.32,0,.15,0,.32-.02.51-.01.19-.02.35-.02.47h-18.43ZM122.37,19.72c-.06-1.24-.27-2.41-.62-3.52-.36-1.11-.88-2.08-1.58-2.92s-1.54-1.51-2.53-2.02c-.99-.5-2.12-.75-3.4-.75-1.36,0-2.56.26-3.6.78-1.04.52-1.91,1.2-2.62,2.04s-1.26,1.82-1.64,2.95c-.38,1.12-.62,2.27-.71,3.46h16.7ZM117.81,0h2.26l-5.94,6.2h-1.64l5.32-6.2Z"/>
    <path class="cls-1" d="M128.62,21.18v.27c0,1.33.18,2.6.53,3.81.35,1.21.88,2.27,1.58,3.19.7.92,1.57,1.64,2.62,2.17,1.05.53,2.27.8,3.66.8,2.28,0,4.09-.6,5.42-1.79,1.33-1.2,2.25-2.86,2.75-4.98h1.68c-.5,2.66-1.59,4.7-3.26,6.11-1.67,1.42-3.88,2.13-6.62,2.13-1.68,0-3.15-.3-4.41-.91-1.25-.6-2.3-1.43-3.15-2.48-.84-1.05-1.47-2.29-1.88-3.72-.41-1.43-.62-2.98-.62-4.63s.21-3.12.64-4.59c.43-1.46,1.07-2.75,1.93-3.85.86-1.11,1.93-1.99,3.21-2.66,1.28-.67,2.8-1,4.54-1,1.59,0,3,.3,4.23.89,1.23.59,2.25,1.4,3.08,2.41.83,1.02,1.45,2.2,1.88,3.54.43,1.34.64,2.78.64,4.32,0,.15,0,.32-.02.51-.01.19-.02.35-.02.47h-18.43ZM145.37,19.72c-.06-1.24-.27-2.41-.62-3.52-.36-1.11-.88-2.08-1.58-2.92s-1.54-1.51-2.53-2.02c-.99-.5-2.12-.75-3.4-.75-1.36,0-2.56.26-3.6.78-1.04.52-1.91,1.2-2.62,2.04s-1.26,1.82-1.64,2.95c-.38,1.12-.62,2.27-.71,3.46h16.7Z"/>
    <path class="cls-1" d="M165,14.62h.13c.21-.74.58-1.43,1.13-2.08.55-.65,1.21-1.21,1.99-1.68.78-.47,1.65-.83,2.61-1.09.96-.25,1.96-.36,2.99-.33v1.68c-.89-.12-1.9-.03-3.04.27-1.14.3-2.22.95-3.26,1.95-.41.44-.78.87-1.08,1.28-.31.41-.57.87-.78,1.37-.21.5-.37,1.06-.49,1.68-.12.62-.19,1.36-.22,2.22v12.45h-1.68V9.57h1.68v5.05Z"/>
    <path class="cls-1" d="M174.04,20.96c0-1.62.23-3.15.69-4.59.46-1.43,1.13-2.69,2.02-3.79.89-1.09,1.98-1.96,3.28-2.59,1.3-.63,2.79-.95,4.47-.95s3.17.32,4.47.95c1.3.64,2.39,1.5,3.28,2.59.89,1.09,1.56,2.36,2.02,3.79.46,1.43.69,2.96.69,4.59s-.23,3.16-.69,4.61c-.46,1.45-1.13,2.71-2.02,3.79-.89,1.08-1.98,1.94-3.28,2.57s-2.79.95-4.47.95-3.18-.32-4.47-.95c-1.3-.63-2.39-1.49-3.28-2.57-.89-1.08-1.56-2.34-2.02-3.79-.46-1.45-.69-2.98-.69-4.61ZM175.72,20.96c0,1.36.19,2.67.58,3.92.38,1.26.94,2.37,1.68,3.35.74.97,1.65,1.75,2.75,2.33,1.09.58,2.35.86,3.77.86s2.67-.29,3.77-.86c1.09-.58,2.01-1.35,2.75-2.33s1.3-2.09,1.68-3.35c.38-1.25.58-2.56.58-3.92s-.19-2.67-.58-3.92c-.38-1.25-.95-2.37-1.68-3.34-.74-.98-1.65-1.75-2.75-2.33-1.09-.58-2.35-.86-3.77-.86s-2.67.29-3.77.86c-1.09.58-2.01,1.35-2.75,2.33-.74.97-1.3,2.09-1.68,3.34-.38,1.26-.58,2.56-.58,3.92Z"/>
    <path class="cls-1" d="M198.93,9.57h1.68v4.65h.09c.18-.71.49-1.38.93-2.02.44-.63.98-1.19,1.62-1.66.63-.47,1.34-.84,2.13-1.11.78-.27,1.6-.4,2.46-.4,1.09,0,2.04.14,2.84.42.8.28,1.48.65,2.04,1.11.56.46,1,.98,1.33,1.55.33.58.55,1.16.67,1.75h.09c.68-1.6,1.59-2.8,2.73-3.61,1.14-.81,2.64-1.22,4.5-1.22,1.03,0,1.99.16,2.86.47s1.62.78,2.26,1.42c.63.64,1.13,1.44,1.48,2.42.35.97.53,2.13.53,3.46v15.55h-1.68v-15.6c0-1.45-.22-2.58-.66-3.41-.44-.83-.97-1.45-1.57-1.88-.61-.43-1.21-.69-1.82-.8-.61-.1-1.07-.16-1.4-.16-1.03,0-1.99.18-2.86.53s-1.62.89-2.26,1.6c-.64.71-1.13,1.59-1.48,2.64-.35,1.05-.53,2.25-.53,3.61v13.47h-1.68v-15.6c0-1.42-.21-2.55-.64-3.39-.43-.84-.93-1.47-1.51-1.88s-1.17-.68-1.77-.8c-.61-.12-1.09-.18-1.44-.18-.8,0-1.62.16-2.48.49-.86.33-1.64.83-2.35,1.51-.71.68-1.29,1.55-1.73,2.61-.44,1.06-.67,2.32-.67,3.77v13.47h-1.68V9.57Z"/>
    <path class="cls-1" d="M249.27,27.82h-.09c-.27.68-.65,1.32-1.15,1.93-.5.61-1.12,1.15-1.84,1.62-.72.47-1.54.84-2.46,1.11-.92.27-1.92.4-3.01.4-2.42,0-4.3-.52-5.63-1.57-1.33-1.05-1.99-2.67-1.99-4.85,0-1.33.27-2.42.8-3.26.53-.84,1.2-1.51,2.02-1.99.81-.49,1.71-.83,2.7-1.04.99-.21,1.94-.35,2.86-.44l2.61-.22c1.21-.09,2.16-.23,2.86-.42.69-.19,1.22-.46,1.57-.8.35-.34.58-.78.66-1.31s.13-1.2.13-1.99c0-.62-.12-1.2-.35-1.73s-.61-1-1.11-1.42c-.5-.41-1.15-.74-1.95-.98-.8-.24-1.77-.35-2.92-.35-2.04,0-3.68.5-4.94,1.51-1.26,1-1.94,2.53-2.06,4.56h-1.68c.12-2.51.92-4.39,2.41-5.65,1.49-1.25,3.61-1.88,6.36-1.88s4.75.54,6,1.62c1.25,1.08,1.88,2.49,1.88,4.23v13.25c0,.33,0,.65.02.97.01.33.07.62.15.89.09.27.24.48.44.64.21.16.5.24.89.24.29,0,.71-.04,1.24-.13v1.42c-.44.12-.9.18-1.37.18-.68,0-1.22-.09-1.62-.27-.4-.18-.7-.41-.91-.71-.21-.29-.35-.64-.42-1.04-.07-.4-.11-.83-.11-1.31v-1.2ZM249.27,19.41c-.41.5-1.04.84-1.88,1.02s-1.78.31-2.81.4l-2.84.27c-.83.09-1.65.21-2.48.38-.83.16-1.57.44-2.24.82-.66.38-1.2.91-1.62,1.57-.41.66-.62,1.53-.62,2.59,0,1.68.53,2.93,1.59,3.74,1.06.81,2.53,1.22,4.39,1.22s3.44-.35,4.56-1.04c1.12-.69,1.98-1.49,2.57-2.39.59-.9.97-1.77,1.13-2.61.16-.84.24-1.41.24-1.71v-4.25Z"/>
    <path class="cls-1" d="M256.31,9.57h1.68v4.87h.09c.29-.86.72-1.62,1.26-2.28.55-.66,1.18-1.23,1.9-1.71.72-.47,1.51-.83,2.37-1.06.86-.24,1.73-.35,2.61-.35,1.33,0,2.46.16,3.39.49.93.33,1.69.75,2.28,1.29.59.53,1.06,1.13,1.4,1.79.34.67.58,1.34.73,2.02.15.68.24,1.34.27,1.97.03.64.04,1.19.04,1.66v14.09h-1.68v-14.4c0-.56-.04-1.27-.13-2.13-.09-.86-.35-1.68-.78-2.46-.43-.78-1.08-1.45-1.95-2.02-.87-.56-2.08-.84-3.61-.84-1.3,0-2.45.24-3.46.71-1,.47-1.86,1.13-2.57,1.97s-1.25,1.85-1.62,3.01c-.37,1.17-.55,2.44-.55,3.83v12.32h-1.68V9.57Z"/>
    <path class="cls-1" d="M296.9,27.47h-.09c-.95,1.8-2.13,3.15-3.54,4.05-1.42.9-3.15,1.35-5.18,1.35-1.71,0-3.19-.33-4.43-.97s-2.26-1.52-3.06-2.61c-.8-1.09-1.39-2.35-1.77-3.79-.38-1.43-.58-2.93-.58-4.5,0-1.68.21-3.26.62-4.72.41-1.46,1.04-2.73,1.88-3.79.84-1.06,1.9-1.91,3.17-2.53,1.27-.62,2.76-.93,4.48-.93.92,0,1.82.13,2.7.38.89.25,1.71.61,2.46,1.09.75.47,1.41,1.06,1.97,1.77.56.71.99,1.51,1.29,2.39h.09V.71h1.68v31.63h-1.68v-4.87ZM288.43,31.41c1.45,0,2.7-.29,3.74-.89,1.05-.59,1.92-1.37,2.61-2.35.69-.97,1.21-2.09,1.55-3.34.34-1.26.51-2.53.51-3.83s-.17-2.62-.51-3.88c-.34-1.26-.85-2.38-1.53-3.37-.68-.99-1.56-1.78-2.64-2.37-1.08-.59-2.34-.89-3.79-.89s-2.79.29-3.86.86c-1.06.58-1.94,1.35-2.64,2.33-.69.97-1.2,2.1-1.51,3.37-.31,1.27-.46,2.58-.46,3.94s.17,2.62.51,3.88c.34,1.26.86,2.37,1.55,3.35.69.97,1.57,1.75,2.64,2.33s2.33.86,3.81.86Z"/>
    <path class="cls-1" d="M304.56,21.18v.27c0,1.33.18,2.6.53,3.81.35,1.21.88,2.27,1.58,3.19.7.92,1.57,1.64,2.62,2.17,1.05.53,2.27.8,3.66.8,2.28,0,4.09-.6,5.42-1.79,1.33-1.2,2.25-2.86,2.75-4.98h1.68c-.5,2.66-1.59,4.7-3.26,6.11-1.67,1.42-3.88,2.13-6.62,2.13-1.68,0-3.15-.3-4.41-.91-1.25-.6-2.3-1.43-3.15-2.48-.84-1.05-1.47-2.29-1.88-3.72-.41-1.43-.62-2.98-.62-4.63s.21-3.12.64-4.59c.43-1.46,1.07-2.75,1.93-3.85.86-1.11,1.93-1.99,3.21-2.66,1.28-.67,2.8-1,4.54-1,1.59,0,3,.3,4.23.89,1.23.59,2.25,1.4,3.08,2.41.83,1.02,1.45,2.2,1.88,3.54.43,1.34.64,2.78.64,4.32,0,.15,0,.32-.02.51-.01.19-.02.35-.02.47h-18.43ZM321.31,19.72c-.06-1.24-.27-2.41-.62-3.52-.36-1.11-.88-2.08-1.58-2.92s-1.54-1.51-2.53-2.02c-.99-.5-2.12-.75-3.4-.75-1.36,0-2.56.26-3.6.78-1.04.52-1.91,1.2-2.62,2.04s-1.26,1.82-1.64,2.95c-.38,1.12-.62,2.27-.71,3.46h16.7Z"/>
    <path class="cls-1" d="M356.84,27.47h-.09c-.95,1.8-2.13,3.15-3.54,4.05-1.42.9-3.15,1.35-5.18,1.35-1.71,0-3.19-.33-4.43-.97s-2.26-1.52-3.06-2.61c-.8-1.09-1.39-2.35-1.77-3.79-.38-1.43-.58-2.93-.58-4.5,0-1.68.21-3.26.62-4.72.41-1.46,1.04-2.73,1.88-3.79.84-1.06,1.9-1.91,3.17-2.53,1.27-.62,2.76-.93,4.48-.93.92,0,1.82.13,2.7.38.89.25,1.71.61,2.46,1.09.75.47,1.41,1.06,1.97,1.77.56.71.99,1.51,1.29,2.39h.09V.71h1.68v31.63h-1.68v-4.87ZM348.38,31.41c1.45,0,2.7-.29,3.74-.89,1.05-.59,1.92-1.37,2.61-2.35.69-.97,1.21-2.09,1.55-3.34.34-1.26.51-2.53.51-3.83s-.17-2.62-.51-3.88c-.34-1.26-.85-2.38-1.53-3.37-.68-.99-1.56-1.78-2.64-2.37-1.08-.59-2.34-.89-3.79-.89s-2.79.29-3.86.86c-1.06.58-1.94,1.35-2.64,2.33-.69.97-1.2,2.1-1.51,3.37-.31,1.27-.46,2.58-.46,3.94s.17,2.62.51,3.88c.34,1.26.86,2.37,1.55,3.35.69.97,1.57,1.75,2.64,2.33s2.33.86,3.81.86Z"/>
    <path class="cls-1" d="M364.51,21.18v.27c0,1.33.18,2.6.53,3.81.35,1.21.88,2.27,1.58,3.19.7.92,1.57,1.64,2.62,2.17,1.05.53,2.27.8,3.66.8,2.28,0,4.09-.6,5.42-1.79,1.33-1.2,2.25-2.86,2.75-4.98h1.68c-.5,2.66-1.59,4.7-3.26,6.11-1.67,1.42-3.88,2.13-6.62,2.13-1.68,0-3.15-.3-4.41-.91-1.25-.6-2.3-1.43-3.15-2.48-.84-1.05-1.47-2.29-1.88-3.72-.41-1.43-.62-2.98-.62-4.63s.21-3.12.64-4.59c.43-1.46,1.07-2.75,1.93-3.85.86-1.11,1.93-1.99,3.21-2.66,1.28-.67,2.8-1,4.54-1,1.59,0,3,.3,4.23.89,1.23.59,2.25,1.4,3.08,2.41.83,1.02,1.45,2.2,1.88,3.54.43,1.34.64,2.78.64,4.32,0,.15,0,.32-.02.51-.01.19-.02.35-.02.47h-18.43ZM381.25,19.72c-.06-1.24-.27-2.41-.62-3.52-.36-1.11-.88-2.08-1.58-2.92s-1.54-1.51-2.53-2.02c-.99-.5-2.12-.75-3.4-.75-1.36,0-2.56.26-3.6.78-1.04.52-1.91,1.2-2.62,2.04s-1.26,1.82-1.64,2.95c-.38,1.12-.62,2.27-.71,3.46h16.7Z"/>
    <path class="cls-1" d="M401.28.71v31.63h-1.68V.71h1.68Z"/>
    <path class="cls-1" d="M421.75,27.82h-.09c-.27.68-.65,1.32-1.15,1.93-.5.61-1.12,1.15-1.84,1.62-.72.47-1.54.84-2.46,1.11-.92.27-1.92.4-3.01.4-2.42,0-4.3-.52-5.63-1.57-1.33-1.05-1.99-2.67-1.99-4.85,0-1.33.27-2.42.8-3.26.53-.84,1.2-1.51,2.02-1.99.81-.49,1.71-.83,2.7-1.04.99-.21,1.94-.35,2.86-.44l2.61-.22c1.21-.09,2.16-.23,2.86-.42.69-.19,1.22-.46,1.57-.8.35-.34.58-.78.66-1.31s.13-1.2.13-1.99c0-.62-.12-1.2-.35-1.73s-.61-1-1.11-1.42c-.5-.41-1.15-.74-1.95-.98-.8-.24-1.77-.35-2.92-.35-2.04,0-3.68.5-4.94,1.51-1.26,1-1.94,2.53-2.06,4.56h-1.68c.12-2.51.92-4.39,2.41-5.65,1.49-1.25,3.61-1.88,6.36-1.88s4.75.54,6,1.62c1.25,1.08,1.88,2.49,1.88,4.23v13.25c0,.33,0,.65.02.97.01.33.07.62.15.89.09.27.24.48.44.64.21.16.5.24.89.24.29,0,.71-.04,1.24-.13v1.42c-.44.12-.9.18-1.37.18-.68,0-1.22-.09-1.62-.27-.4-.18-.7-.41-.91-.71-.21-.29-.35-.64-.42-1.04-.07-.4-.11-.83-.11-1.31v-1.2ZM421.75,19.41c-.41.5-1.04.84-1.88,1.02s-1.78.31-2.81.4l-2.84.27c-.83.09-1.65.21-2.48.38-.83.16-1.57.44-2.24.82-.66.38-1.2.91-1.62,1.57-.41.66-.62,1.53-.62,2.59,0,1.68.53,2.93,1.59,3.74,1.06.81,2.53,1.22,4.39,1.22s3.44-.35,4.56-1.04c1.12-.69,1.98-1.49,2.57-2.39.59-.9.97-1.77,1.13-2.61.16-.84.24-1.41.24-1.71v-4.25Z"/>
  </g>
  <path class="cls-1" d="M23.71,78.06c-.26,1.21-.81,2.33-1.66,3.38s-2.07,1.93-3.67,2.65c-1.6.73-3.75,1.09-6.44,1.09-1.15,0-2.32-.14-3.51-.43-1.19-.29-2.28-.73-3.26-1.34-.98-.6-1.8-1.38-2.45-2.33-.65-.95-1.02-2.09-1.11-3.42h6.39c.3,1.21.89,2.05,1.77,2.52.88.47,1.89.7,3.04.7,1.81,0,3.13-.54,3.97-1.63.83-1.09,1.23-2.46,1.2-4.12v-3.08h-.09c-.7,1.24-1.68,2.15-2.97,2.74-1.29.59-2.64.88-4.06.88-1.75,0-3.26-.31-4.53-.93-1.27-.62-2.31-1.47-3.13-2.54-.82-1.07-1.41-2.33-1.79-3.76-.38-1.44-.57-2.95-.57-4.56,0-1.51.22-2.97.66-4.37.44-1.41,1.08-2.64,1.93-3.72.85-1.07,1.9-1.93,3.15-2.56,1.25-.63,2.7-.95,4.33-.95,1.54,0,2.89.29,4.06.86,1.16.57,2.14,1.54,2.92,2.9h.09v-3.13h6.12v21.94c0,.94-.13,2.01-.38,3.22ZM14.89,70.26c.7-.36,1.27-.85,1.72-1.45.45-.6.79-1.29,1.02-2.06s.34-1.58.34-2.42c0-.97-.09-1.88-.27-2.74-.18-.86-.48-1.62-.91-2.29-.42-.66-.98-1.19-1.68-1.59-.7-.39-1.57-.59-2.63-.59-.91,0-1.68.18-2.33.54-.65.36-1.19.85-1.63,1.47-.44.62-.76,1.33-.95,2.13-.2.8-.29,1.64-.29,2.52s.08,1.68.25,2.52c.17.83.45,1.58.86,2.24.41.67.94,1.21,1.61,1.63.67.42,1.5.63,2.49.63.91,0,1.71-.18,2.4-.54Z"/>
  <path class="cls-1" d="M36.15,70.71c.97.94,2.36,1.41,4.17,1.41,1.3,0,2.42-.32,3.35-.97.94-.65,1.51-1.34,1.72-2.06h5.67c-.91,2.81-2.3,4.82-4.17,6.03-1.87,1.21-4.14,1.81-6.8,1.81-1.84,0-3.51-.29-4.99-.88-1.48-.59-2.74-1.43-3.76-2.52-1.03-1.09-1.82-2.39-2.38-3.9-.56-1.51-.84-3.17-.84-4.99s.29-3.38.86-4.9c.57-1.51,1.39-2.82,2.45-3.92,1.06-1.1,2.32-1.97,3.78-2.61s3.09-.95,4.87-.95c2,0,3.73.39,5.21,1.16,1.48.77,2.7,1.81,3.65,3.1.95,1.3,1.64,2.78,2.06,4.44.42,1.66.57,3.4.45,5.21h-16.91c.09,2.08.62,3.6,1.59,4.53ZM43.42,58.38c-.77-.85-1.94-1.27-3.51-1.27-1.03,0-1.88.17-2.56.52-.68.35-1.22.78-1.63,1.29-.41.51-.7,1.06-.86,1.63-.17.57-.26,1.09-.29,1.54h10.47c-.3-1.63-.84-2.87-1.61-3.72Z"/>
  <path class="cls-1" d="M55.41,59.54c.57-1.53,1.39-2.83,2.45-3.9s2.33-1.9,3.81-2.49,3.14-.88,4.99-.88,3.51.29,5.01.88c1.5.59,2.77,1.42,3.83,2.49,1.06,1.07,1.87,2.37,2.45,3.9.57,1.53.86,3.23.86,5.1s-.29,3.57-.86,5.08c-.57,1.51-1.39,2.8-2.45,3.88-1.06,1.07-2.33,1.9-3.83,2.47-1.5.57-3.17.86-5.01.86s-3.51-.29-4.99-.86-2.75-1.4-3.81-2.47c-1.06-1.07-1.87-2.36-2.45-3.88-.57-1.51-.86-3.2-.86-5.08s.29-3.57.86-5.1ZM61.26,67.38c.18.89.49,1.69.93,2.4.44.71,1.02,1.28,1.75,1.7.73.42,1.63.63,2.72.63s2-.21,2.74-.63c.74-.42,1.33-.99,1.77-1.7.44-.71.75-1.51.93-2.4.18-.89.27-1.81.27-2.74s-.09-1.86-.27-2.77c-.18-.91-.49-1.71-.93-2.4-.44-.69-1.03-1.26-1.77-1.7-.74-.44-1.66-.66-2.74-.66s-1.99.22-2.72.66c-.72.44-1.31,1-1.75,1.7-.44.7-.75,1.5-.93,2.4-.18.91-.27,1.83-.27,2.77s.09,1.85.27,2.74Z"/>
  <path class="cls-2" d="M89.59,52.9v23.44h-6.44v-23.44h6.44Z"/>
  <path class="cls-2" d="M100.79,52.9v3.26h.14c.82-1.36,1.87-2.35,3.17-2.97,1.3-.62,2.63-.93,3.99-.93,1.72,0,3.13.23,4.24.7,1.1.47,1.97,1.12,2.61,1.95.63.83,1.08,1.84,1.34,3.04.26,1.19.38,2.52.38,3.97v14.42h-6.44v-13.24c0-1.93-.3-3.38-.91-4.33-.6-.95-1.68-1.43-3.22-1.43-1.75,0-3.02.52-3.81,1.56-.79,1.04-1.18,2.76-1.18,5.15v12.28h-6.44v-23.44h6.12Z"/>
  <path class="cls-2" d="M119.1,57.2v-4.31h3.85v-1.81c0-2.09.65-3.79,1.95-5.12,1.3-1.33,3.26-1.99,5.89-1.99.57,0,1.15.02,1.72.07.57.05,1.13.08,1.68.11v4.8c-.76-.09-1.54-.14-2.36-.14-.88,0-1.5.2-1.88.61-.38.41-.57,1.1-.57,2.06v1.41h4.44v4.31h-4.44v19.13h-6.44v-19.13h-3.85Z"/>
  <path class="cls-2" d="M136.78,59.54c.57-1.53,1.39-2.83,2.45-3.9s2.33-1.9,3.81-2.49,3.14-.88,4.99-.88,3.51.29,5.01.88c1.5.59,2.77,1.42,3.83,2.49,1.06,1.07,1.87,2.37,2.45,3.9.57,1.53.86,3.23.86,5.1s-.29,3.57-.86,5.08c-.57,1.51-1.39,2.8-2.45,3.88-1.06,1.07-2.33,1.9-3.83,2.47-1.5.57-3.17.86-5.01.86s-3.51-.29-4.99-.86-2.75-1.4-3.81-2.47c-1.06-1.07-1.87-2.36-2.45-3.88-.57-1.51-.86-3.2-.86-5.08s.29-3.57.86-5.1ZM142.63,67.38c.18.89.49,1.69.93,2.4.44.71,1.02,1.28,1.75,1.7.73.42,1.63.63,2.72.63s2-.21,2.74-.63c.74-.42,1.33-.99,1.77-1.7.44-.71.75-1.51.93-2.4.18-.89.27-1.81.27-2.74s-.09-1.86-.27-2.77c-.18-.91-.49-1.71-.93-2.4-.44-.69-1.03-1.26-1.77-1.7-.74-.44-1.66-.66-2.74-.66s-1.99.22-2.72.66c-.72.44-1.31,1-1.75,1.7-.44.7-.75,1.5-.93,2.4-.18.91-.27,1.83-.27,2.77s.09,1.85.27,2.74Z"/>
  <path class="cls-2" d="M170.46,52.9v4.35h.09c.3-.73.71-1.4,1.22-2.02.51-.62,1.1-1.15,1.77-1.59.67-.44,1.38-.78,2.13-1.02.75-.24,1.54-.36,2.36-.36.42,0,.89.08,1.41.23v5.98c-.3-.06-.67-.11-1.09-.16-.42-.05-.83-.07-1.22-.07-1.18,0-2.18.2-2.99.59-.82.39-1.47.93-1.97,1.61-.5.68-.85,1.47-1.07,2.38-.21.91-.32,1.89-.32,2.95v10.56h-6.44v-23.44h6.12Z"/>
  <path class="cls-2" d="M188.23,52.9v3.17h.09c.85-1.21,1.87-2.15,3.06-2.81,1.19-.66,2.56-1,4.1-1s2.83.29,4.06.86c1.22.57,2.15,1.59,2.79,3.04.7-1.03,1.64-1.93,2.83-2.72,1.19-.79,2.61-1.18,4.24-1.18,1.24,0,2.39.15,3.45.45,1.06.3,1.96.79,2.72,1.45.75.67,1.34,1.53,1.77,2.61.42,1.07.63,2.37.63,3.88v15.68h-6.44v-13.28c0-.79-.03-1.53-.09-2.22-.06-.69-.23-1.3-.5-1.81-.27-.51-.67-.92-1.2-1.22-.53-.3-1.25-.45-2.15-.45s-1.64.17-2.2.52c-.56.35-1,.8-1.31,1.36-.32.56-.53,1.19-.63,1.9-.11.71-.16,1.43-.16,2.15v13.06h-6.44v-13.15c0-.69-.02-1.38-.05-2.06-.03-.68-.16-1.31-.38-1.88-.23-.57-.61-1.03-1.13-1.38-.53-.35-1.31-.52-2.33-.52-.3,0-.7.07-1.2.2-.5.14-.98.39-1.45.77-.47.38-.87.92-1.2,1.63-.33.71-.5,1.64-.5,2.79v13.6h-6.44v-23.44h6.07Z"/>
  <path class="cls-2" d="M222.77,60.11c.09-1.51.47-2.77,1.13-3.76.67-1,1.51-1.8,2.54-2.4,1.03-.6,2.18-1.03,3.47-1.29,1.28-.26,2.58-.39,3.88-.39,1.18,0,2.37.08,3.58.25,1.21.17,2.31.49,3.31.97,1,.48,1.81,1.16,2.45,2.02.63.86.95,2,.95,3.42v12.19c0,1.06.06,2.07.18,3.04.12.97.33,1.69.63,2.18h-6.53c-.12-.36-.22-.73-.29-1.11-.08-.38-.13-.76-.16-1.16-1.03,1.06-2.24,1.8-3.63,2.22-1.39.42-2.81.63-4.26.63-1.12,0-2.16-.14-3.13-.41-.97-.27-1.81-.69-2.54-1.27-.73-.57-1.29-1.3-1.7-2.18-.41-.88-.61-1.92-.61-3.13,0-1.33.23-2.43.7-3.29.47-.86,1.07-1.55,1.81-2.06.74-.51,1.59-.9,2.54-1.16.95-.26,1.91-.46,2.88-.61.97-.15,1.92-.27,2.86-.36.94-.09,1.77-.23,2.49-.41.72-.18,1.3-.45,1.72-.79.42-.35.62-.85.59-1.52,0-.69-.11-1.25-.34-1.65-.23-.41-.53-.73-.91-.95-.38-.23-.82-.38-1.32-.45-.5-.08-1.04-.11-1.61-.11-1.27,0-2.27.27-2.99.82s-1.15,1.45-1.27,2.72h-6.44ZM237.64,64.87c-.27.24-.61.43-1.02.57-.41.14-.85.25-1.31.34-.47.09-.96.17-1.47.23-.51.06-1.03.14-1.54.23-.48.09-.96.21-1.43.36-.47.15-.88.36-1.22.61-.35.26-.63.58-.84.97-.21.39-.32.89-.32,1.5s.11,1.06.32,1.45c.21.39.5.7.86.93.36.23.79.39,1.27.48.48.09.98.14,1.5.14,1.27,0,2.25-.21,2.95-.63.7-.42,1.21-.93,1.54-1.52.33-.59.54-1.19.61-1.79.08-.6.11-1.09.11-1.45v-2.4Z"/>
  <path class="cls-2" d="M261.93,52.9v4.31h-4.71v11.6c0,1.09.18,1.81.54,2.18.36.36,1.09.54,2.18.54.36,0,.71-.01,1.04-.04.33-.03.65-.08.95-.14v4.99c-.54.09-1.15.15-1.81.18-.67.03-1.31.05-1.95.05-1,0-1.94-.07-2.83-.2-.89-.14-1.68-.4-2.36-.79-.68-.39-1.22-.95-1.61-1.68-.39-.73-.59-1.68-.59-2.86v-13.83h-3.9v-4.31h3.9v-7.03h6.44v7.03h4.71Z"/>
  <path class="cls-2" d="M271.63,52.9v23.44h-6.44v-23.44h6.44Z"/>
  <path class="cls-2" d="M276.84,59.54c.57-1.53,1.39-2.83,2.45-3.9s2.33-1.9,3.81-2.49,3.14-.88,4.99-.88,3.51.29,5.01.88c1.5.59,2.77,1.42,3.83,2.49,1.06,1.07,1.87,2.37,2.45,3.9.57,1.53.86,3.23.86,5.1s-.29,3.57-.86,5.08c-.57,1.51-1.39,2.8-2.45,3.88-1.06,1.07-2.33,1.9-3.83,2.47-1.5.57-3.17.86-5.01.86s-3.51-.29-4.99-.86-2.75-1.4-3.81-2.47c-1.06-1.07-1.87-2.36-2.45-3.88-.57-1.51-.86-3.2-.86-5.08s.29-3.57.86-5.1ZM282.69,67.38c.18.89.49,1.69.93,2.4.44.71,1.02,1.28,1.75,1.7.73.42,1.63.63,2.72.63s2-.21,2.74-.63c.74-.42,1.33-.99,1.77-1.7.44-.71.75-1.51.93-2.4.18-.89.27-1.81.27-2.74s-.09-1.86-.27-2.77c-.18-.91-.49-1.71-.93-2.4-.44-.69-1.03-1.26-1.77-1.7-.74-.44-1.66-.66-2.74-.66s-1.99.22-2.72.66c-.72.44-1.31,1-1.75,1.7-.44.7-.75,1.5-.93,2.4-.18.91-.27,1.83-.27,2.77s.09,1.85.27,2.74Z"/>
  <path class="cls-2" d="M310.52,52.9v3.26h.14c.82-1.36,1.87-2.35,3.17-2.97,1.3-.62,2.63-.93,3.99-.93,1.72,0,3.13.23,4.24.7,1.1.47,1.97,1.12,2.61,1.95.63.83,1.08,1.84,1.34,3.04.26,1.19.38,2.52.38,3.97v14.42h-6.44v-13.24c0-1.93-.3-3.38-.91-4.33-.6-.95-1.68-1.43-3.22-1.43-1.75,0-3.02.52-3.81,1.56-.79,1.04-1.18,2.76-1.18,5.15v12.28h-6.44v-23.44h6.12Z"/>
  <polygon class="cls-2" points="93.65 49.8 89.53 49.8 89.53 40.72 80.45 40.72 80.45 36.6 93.65 36.6 93.65 49.8"/>
  <polygon class="cls-1" points="46.4 49.8 33.2 49.8 33.2 36.6 37.32 36.6 37.32 45.68 46.4 45.68 46.4 49.8"/>
  <polygon class="cls-2" points="275.76 49.8 271.64 49.8 271.64 40.72 262.56 40.72 262.56 36.6 275.76 36.6 275.76 49.8"/>
  <g>
    <path class="cls-2" d="M331.92,72.41c.57-1.16,1.31-2.22,2.2-3.17.89-.95,1.89-1.84,2.99-2.65,1.1-.82,2.23-1.6,3.38-2.36,1.12-.75,2.22-1.52,3.31-2.29s2.06-1.59,2.92-2.47c.86-.88,1.55-1.84,2.06-2.88.51-1.04.77-2.23.77-3.56,0-1.06-.21-2.02-.63-2.88-.42-.86-.99-1.6-1.7-2.22-.71-.62-1.53-1.09-2.45-1.43-.92-.33-1.9-.5-2.92-.5-1.42,0-2.66.25-3.72.75-1.06.5-1.93,1.18-2.63,2.04s-1.22,1.87-1.56,3.04c-.35,1.16-.52,2.43-.52,3.79h-1.72c.18-3.81,1.1-6.61,2.74-8.41,1.65-1.8,4.03-2.7,7.14-2.7,1.33,0,2.58.17,3.76.52s2.21.88,3.08,1.59c.88.71,1.57,1.6,2.09,2.67.51,1.07.77,2.33.77,3.79,0,1.84-.43,3.47-1.29,4.87s-1.95,2.68-3.26,3.83-2.74,2.22-4.26,3.22c-1.53,1-2.96,1.99-4.31,2.97-1.34.98-2.49,2.01-3.45,3.08-.95,1.07-1.49,2.26-1.61,3.56h18.68v1.72h-20.85c.09-1.45.42-2.76,1-3.92Z"/>
    <path class="cls-2" d="M366.64,76.88c-2.27,0-4.12-.49-5.58-1.47-1.45-.98-2.61-2.25-3.47-3.81-.86-1.56-1.46-3.29-1.79-5.21-.33-1.92-.5-3.81-.5-5.69s.17-3.77.5-5.69c.33-1.92.93-3.66,1.79-5.21.86-1.56,2.02-2.83,3.47-3.81,1.45-.98,3.31-1.47,5.58-1.47s4.12.49,5.58,1.47c1.45.98,2.61,2.25,3.47,3.81.86,1.56,1.46,3.29,1.79,5.21.33,1.92.5,3.82.5,5.69s-.17,3.77-.5,5.69c-.33,1.92-.93,3.66-1.79,5.21-.86,1.56-2.02,2.83-3.47,3.81-1.45.98-3.31,1.47-5.58,1.47ZM366.64,75.38c1.93,0,3.53-.47,4.78-1.41,1.25-.94,2.24-2.13,2.95-3.58.71-1.45,1.2-3.04,1.47-4.76.27-1.72.41-3.37.41-4.94s-.14-3.22-.41-4.94c-.27-1.72-.76-3.31-1.47-4.76-.71-1.45-1.69-2.64-2.95-3.58-1.25-.94-2.85-1.4-4.78-1.4s-3.57.47-4.8,1.4c-1.24.94-2.21,2.13-2.92,3.58-.71,1.45-1.2,3.04-1.47,4.76-.27,1.72-.41,3.37-.41,4.94s.14,3.22.41,4.94c.27,1.72.76,3.31,1.47,4.76.71,1.45,1.68,2.64,2.92,3.58,1.24.94,2.84,1.41,4.8,1.41Z"/>
    <path class="cls-2" d="M382.33,72.41c.57-1.16,1.31-2.22,2.2-3.17.89-.95,1.89-1.84,2.99-2.65,1.1-.82,2.23-1.6,3.38-2.36,1.12-.75,2.22-1.52,3.31-2.29s2.06-1.59,2.92-2.47c.86-.88,1.55-1.84,2.06-2.88.51-1.04.77-2.23.77-3.56,0-1.06-.21-2.02-.63-2.88-.42-.86-.99-1.6-1.7-2.22-.71-.62-1.53-1.09-2.45-1.43-.92-.33-1.9-.5-2.92-.5-1.42,0-2.66.25-3.72.75-1.06.5-1.93,1.18-2.63,2.04s-1.22,1.87-1.56,3.04c-.35,1.16-.52,2.43-.52,3.79h-1.72c.18-3.81,1.1-6.61,2.74-8.41,1.65-1.8,4.03-2.7,7.14-2.7,1.33,0,2.58.17,3.76.52s2.21.88,3.08,1.59c.88.71,1.57,1.6,2.09,2.67.51,1.07.77,2.33.77,3.79,0,1.84-.43,3.47-1.29,4.87s-1.95,2.68-3.26,3.83-2.74,2.22-4.26,3.22c-1.53,1-2.96,1.99-4.31,2.97-1.34.98-2.49,2.01-3.45,3.08-.95,1.07-1.49,2.26-1.61,3.56h18.68v1.72h-20.85c.09-1.45.42-2.76,1-3.92Z"/>
    <path class="cls-2" d="M407.85,66.77c-.03,1.3.19,2.48.66,3.54.47,1.06,1.11,1.96,1.93,2.72.82.75,1.78,1.34,2.88,1.75,1.1.41,2.29.61,3.56.61s2.54-.25,3.63-.75c1.09-.5,2.02-1.17,2.81-2.02.79-.85,1.39-1.84,1.81-2.99.42-1.15.63-2.36.63-3.63s-.22-2.46-.66-3.58-1.06-2.08-1.86-2.9-1.75-1.47-2.83-1.95-2.27-.73-3.54-.73c-1.81,0-3.35.37-4.62,1.11s-2.4,1.84-3.4,3.29h-1.77l3.26-16.18h15.82v1.5h-14.46l-2.67,12.46.09.09c.91-1.27,2.03-2.21,3.38-2.83,1.34-.62,2.8-.93,4.37-.93s2.96.26,4.26.79c1.3.53,2.42,1.26,3.35,2.2.94.94,1.67,2.06,2.2,3.38.53,1.31.79,2.74.79,4.28s-.26,2.98-.77,4.31c-.51,1.33-1.24,2.49-2.18,3.47-.94.98-2.06,1.75-3.35,2.29-1.3.54-2.74.82-4.31.82s-2.93-.23-4.26-.7c-1.33-.47-2.49-1.13-3.49-2s-1.77-1.92-2.31-3.17-.77-2.67-.68-4.24h1.72Z"/>
  </g>
</svg>
